<svg id="Layer_1" data-name="Layer 1" xmlns="http://www.w3.org/2000/svg" viewBox="0 0 40 40"><defs><style>.cls-1,.cls-2{fill:#a2a2a2;}.cls-2,.cls-3{stroke:#a2a2a2;stroke-linecap:round;stroke-miterlimit:10;stroke-width:3px;}.cls-3{fill:none;}</style></defs><title>roots</title><path class="cls-1" d="M20,3A17,17,0,1,1,3,20,17,17,0,0,1,20,3m0-3A20,20,0,1,0,40,20,20,20,0,0,0,20,0Z"/><circle class="cls-2" cx="13.23" cy="11.89" r="2.81"/><path class="cls-1" d="M37.67,25.48,28.23,12.7a.64.64,0,0,0-1.14,0L18.88,25.5a.84.84,0,0,1-1.29.18l-6-5.27a1.07,1.07,0,0,0-1.45.05L3.83,26.89a1.58,1.58,0,0,0-.29,1.63A18.26,18.26,0,0,0,20,38.45C32,38.45,36.73,28.15,37.67,25.48Z"/><path class="cls-3" d="M37.67,25.48,28.23,12.7a.64.64,0,0,0-1.14,0L18.88,25.5a.84.84,0,0,1-1.29.18l-6-5.27a1.07,1.07,0,0,0-1.45.05L3.83,26.89a1.58,1.58,0,0,0-.29,1.63A18.26,18.26,0,0,0,20,38.45C32,38.45,36.73,28.15,37.67,25.48Z"/></svg>