<svg id="Layer_1" data-name="Layer 1" xmlns="http://www.w3.org/2000/svg" viewBox="0 0 40 40"><defs><style>.cls-1,.cls-2,.cls-3{fill:none;stroke-linecap:round;stroke-miterlimit:10;}.cls-1,.cls-3{stroke:#a2a2a2;}.cls-1{stroke-width:2.5px;}.cls-2{stroke:#fff;stroke-width:2px;}.cls-3{stroke-width:1.5px;}.cls-4{fill:#a2a2a2;}</style></defs><title>roots</title><line class="cls-1" x1="10.91" y1="9.61" x2="29.09" y2="9.61"/><line class="cls-2" x1="20" y1="16.61" x2="20" y2="31.31"/><line class="cls-2" x1="24.82" y1="16.61" x2="24.82" y2="31.31"/><line class="cls-2" x1="15.18" y1="16.61" x2="15.18" y2="31.31"/><rect class="cls-3" x="16.66" y="5.93" width="6.68" height="3.67" rx="1" ry="1"/><path class="cls-4" d="M11.37,12.6v21a2,2,0,0,0,2,2H26.64a2,2,0,0,0,2-2V12.6H11.37Zm4.81,18.72a1,1,0,0,1-2,0V16.59a1,1,0,1,1,2,0V31.32Zm4.81,0a1,1,0,0,1-2,0V16.59a1,1,0,1,1,2,0V31.32Zm4.82,0a1,1,0,0,1-2,0V16.59a1,1,0,1,1,2,0V31.32Z"/></svg>