<svg id="Layer_1" data-name="Layer 1" xmlns="http://www.w3.org/2000/svg" viewBox="0 0 40 40"><defs><style>.cls-1,.cls-2,.cls-3{fill:none;stroke-linecap:round;stroke-miterlimit:10;}.cls-1,.cls-3{stroke:#a2a2a2;}.cls-1{stroke-width:2.5px;}.cls-2{stroke:#fff;stroke-width:2px;}.cls-3{stroke-width:1.5px;}.cls-4{fill:#a2a2a2;}</style></defs><title>roots</title><line class="cls-1" x1="7.96" y1="5.65" x2="32.04" y2="5.65"/><line class="cls-2" x1="20" y1="14.92" x2="20" y2="34.41"/><line class="cls-2" x1="26.38" y1="14.92" x2="26.38" y2="34.41"/><line class="cls-2" x1="13.62" y1="14.92" x2="13.62" y2="34.41"/><rect class="cls-3" x="15.58" y="0.78" width="8.85" height="4.87" rx="1" ry="1"/><path class="cls-4" d="M8.56,9.61V37.37A2.63,2.63,0,0,0,11.19,40h17.6a2.64,2.64,0,0,0,2.64-2.64V9.61Zm6.37,24.8a1.31,1.31,0,0,1-2.62,0V14.91a1.31,1.31,0,1,1,2.62,0Zm6.38,0a1.31,1.31,0,0,1-2.62,0V14.91a1.31,1.31,0,1,1,2.62,0Zm6.38,0a1.31,1.31,0,0,1-2.62,0V14.91a1.31,1.31,0,1,1,2.62,0Z"/></svg>