<svg id="Layer_1" data-name="Layer 1" xmlns="http://www.w3.org/2000/svg" viewBox="0 0 40 40"><defs><style>.cls-1{fill:#a2a2a2;}.cls-2{fill:none;stroke:#a2a2a2;stroke-linecap:round;stroke-miterlimit:10;stroke-width:3px;}</style></defs><title>roots</title><path class="cls-1" d="M20,3A17,17,0,1,1,3,20,17,17,0,0,1,20,3m0-3A20,20,0,1,0,40,20,20,20,0,0,0,20,0Z"/><circle class="cls-2" cx="13.23" cy="11.89" r="2.81"/><path class="cls-2" d="M3.13,27.6l7-7.14a1.07,1.07,0,0,1,1.45-.05l6,5.27a.84.84,0,0,0,1.29-.18l8.21-12.77a.64.64,0,0,1,1.14,0l9.44,12.79"/></svg>